<?xml version="1.0"?>
<svg xmlns="http://www.w3.org/2000/svg" xmlns:xlink="http://www.w3.org/1999/xlink" xmlns:svgjs="http://svgjs.com/svgjs" version="1.1" width="512" height="512" x="0" y="0" viewBox="0 0 511.968 511.968" style="enable-background:new 0 0 512 512" xml:space="preserve" class=""><g><g xmlns="http://www.w3.org/2000/svg"><path d="m399.026 112.941c-22.388-22.387-58.817-22.387-81.205 0-22.388 22.388-22.388 58.816 0 81.205 11.194 11.194 25.898 16.792 40.603 16.792 14.704 0 29.408-5.597 40.602-16.792 22.387-22.388 22.387-58.816 0-81.205zm-21.213 59.993c-10.691 10.691-28.087 10.692-38.779 0-10.691-10.691-10.691-28.087 0-38.778 5.346-5.346 12.367-8.019 19.39-8.019 7.021 0 14.044 2.673 19.389 8.018 10.691 10.691 10.691 28.087 0 38.779z" fill="#787878" data-original="#000000" style=""/><path d="m509.004 15.691c-.943-6.6-6.128-11.785-12.728-12.728-45.527-6.504-92.658-2.254-136.289 12.289-43.631 14.544-83.884 39.421-116.404 71.942l-34.482 34.482c-65.072-10.26-131.029 11.044-177.857 57.874l-26.85 26.85c-3.388 3.387-4.954 8.189-4.214 12.922s3.696 8.829 7.956 11.021l77.127 39.699 34.439 34.439c-10.031 5.521-19.708 12.429-28.353 21.074-45.748 45.748-42.912 120.373-42.769 123.528.352 7.75 6.555 13.953 14.304 14.304.401.019 1.953.08 4.456.08 17.195 0 79.137-2.914 119.071-42.848 8.645-8.645 15.553-18.323 21.074-28.353l34.439 34.439 39.699 77.127c2.192 4.26 6.288 7.216 11.021 7.956.773.121 1.547.18 2.317.18 3.946 0 7.771-1.559 10.605-4.394l26.85-26.85c46.829-46.829 68.134-112.786 57.874-177.857l34.482-34.482c32.521-32.52 57.398-72.773 71.942-116.404 14.545-43.632 18.795-90.76 12.29-136.29zm-28.326 15.599c1.577 15.956 1.663 31.935.375 47.746l-48.121-48.121c15.811-1.287 31.79-1.201 47.746.375zm-428.222 169.474c34.528-34.527 81.226-52.809 129.105-51.548 0 0-57.961 57.961-57.962 57.962l-32.255 32.255-51.202-26.355zm62.969 57.015 18.781-18.781 138.764 138.764-18.781 18.781zm49.774 141.628c-25.589 25.588-64.985 32.014-86.206 33.57 1.556-21.231 7.982-60.621 33.568-86.208 8.66-8.66 18.902-15.119 29.485-19.943l43.096 43.096c-4.825 10.583-11.284 20.825-19.943 29.485zm146.005 60.104-12.314 12.314-26.355-51.202 32.255-32.255s57.961-57.962 57.961-57.962c1.262 47.88-17.02 94.578-51.547 129.105zm92.356-212.339-109.377 109.377s-69.383-69.383-69.383-69.383l-69.381-69.381 109.377-109.377c36.268-36.268 82.146-60.92 131.301-71.901l79.365 79.365c-10.982 49.154-35.635 95.033-71.902 131.3z" fill="#787878" data-original="#000000" style=""/></g></g></svg>
