<svg id="Pictograms" xmlns="http://www.w3.org/2000/svg" viewBox="0 0 240 240"><defs><style>.cls-1{fill:#e35500;}.cls-2,.cls-3,.cls-4{fill:#f0ab00;}.cls-2{opacity:0.4;}.cls-3{opacity:0.7;}</style></defs><title>281473-pictogram</title><path d="M216,100a96.89,96.89,0,0,0-14-33.7l8.52-8.52L182.23,29.49,173.7,38a96.88,96.88,0,0,0-33.7-14V12H100V24.05A96.88,96.88,0,0,0,66.3,38l-8.52-8.52L29.49,57.77,38,66.3A96.89,96.89,0,0,0,24,100H12v40H24a96.89,96.89,0,0,0,14,33.7l-8.52,8.52,28.28,28.28L66.3,202a98.89,98.89,0,0,0,33.7,14V228h40V215.95a96.88,96.88,0,0,0,33.7-14l8.52,8.52,28.28-28.28L202,173.7a98.86,98.86,0,0,0,14-33.7H228V100Zm8,36H212.65l-.31,1.62a94.71,94.71,0,0,1-14.59,35.21l-.93,1.37,8,8-22.63,22.63-8-8-1.37.93a93,93,0,0,1-35.2,14.59l-1.63.31V224H104V212.65l-1.62-.31a94.74,94.74,0,0,1-35.21-14.59l-1.37-.93-8,8L35.15,182.23l8-8-.93-1.37a93,93,0,0,1-14.59-35.2L27.35,136H16V104H27.35l.31-1.63a93,93,0,0,1,14.59-35.2l.93-1.37-8-8L57.77,35.15l8,8,1.37-.93a93,93,0,0,1,35.2-14.59l1.63-.31V16h32V27.35l1.63.31a93,93,0,0,1,35.2,14.59l1.37.93,8-8,22.63,22.63-8,8,.93,1.37a93,93,0,0,1,14.59,35.2l.31,1.63H224ZM120,40a80,80,0,1,0,80,80A80.09,80.09,0,0,0,120,40Zm20.17,153.26a75.82,75.82,0,0,1-45.9-1.75V162.56L93.15,162C78.34,154.74,68,137.66,68,120.48A52.24,52.24,0,0,1,120.18,68.3c28.57,0,51.82,23.41,51.82,52.18V140.2h-8.2v23.65c0,5.65-2.89,7.85-10.31,7.85H140.17Zm4-1.23V175.7h9.31c3.54,0,14.31,0,14.31-11.85V144.2H176V120.48c0-31-25-56.18-55.82-56.18A56.25,56.25,0,0,0,64,120.48c0,18.22,10.75,36.34,26.27,44.55v24.91a76,76,0,1,1,53.9,2.1Zm15.69-62.53-12.25-6.68,12.25-6.68,1.92,3.51L156,122.83l5.81,3.17ZM120.47,39.72h0S120.51,39.72,120.47,39.72Zm0,21.53s0,0,0,0Zm0,43.06s0,0,0,0Zm0-21.53s0,0,0,0Z"/><path class="cls-1" d="M63.49,63.37,78.67,78.64,93.85,93.91,109,109.18l11.43,11.5v-81A80.49,80.49,0,0,0,63.49,63.37Z"/><path class="cls-2" d="M78.67,78.64,93.85,93.91a37.56,37.56,0,0,1,26.62-11.12V61.25A59,59,0,0,0,78.67,78.64Z"/><path class="cls-3" d="M93.85,93.91,109,109.18a16.09,16.09,0,0,1,11.43-4.86V82.79A37.56,37.56,0,0,0,93.85,93.91Z"/><path class="cls-4" d="M109,109.18l11.43,11.5V104.32A16.09,16.09,0,0,0,109,109.18Z"/></svg>